<?xml version="1.0" encoding="UTF-8" standalone="no"?>
<!-- Created with Inkscape (http://www.inkscape.org/) -->

<svg
   xmlns:dc="http://purl.org/dc/elements/1.1/"
   xmlns:cc="http://creativecommons.org/ns#"
   xmlns:rdf="http://www.w3.org/1999/02/22-rdf-syntax-ns#"
   xmlns:svg="http://www.w3.org/2000/svg"
   xmlns="http://www.w3.org/2000/svg"
   xmlns:sodipodi="http://sodipodi.sourceforge.net/DTD/sodipodi-0.dtd"
   xmlns:inkscape="http://www.inkscape.org/namespaces/inkscape"
   width="614.95471"
   height="614.95471"
   id="svg2"
   version="1.1"
   inkscape:version="0.48.4 r9939"
   sodipodi:docname="against_war.svg">
  <defs
     id="defs4" />
  <sodipodi:namedview
     id="base"
     pagecolor="#ffffff"
     bordercolor="#666666"
     borderopacity="1.0"
     inkscape:pageopacity="0.0"
     inkscape:pageshadow="2"
     inkscape:zoom="0.53379369"
     inkscape:cx="307.59114"
     inkscape:cy="78.771324"
     inkscape:document-units="px"
     inkscape:current-layer="layer1"
     showgrid="false"
     inkscape:window-width="1280"
     inkscape:window-height="749"
     inkscape:window-x="0"
     inkscape:window-y="26"
     inkscape:window-maximized="1"
     fit-margin-top="0"
     fit-margin-left="0"
     fit-margin-right="0"
     fit-margin-bottom="0" />
  <metadata
     id="metadata7">
    <rdf:RDF>
      <cc:Work
         rdf:about="">
        <dc:format>image/svg+xml</dc:format>
        <dc:type
           rdf:resource="http://purl.org/dc/dcmitype/StillImage" />
        <dc:title></dc:title>
      </cc:Work>
    </rdf:RDF>
  </metadata>
  <g
     inkscape:label="Layer 1"
     inkscape:groupmode="layer"
     id="layer1"
     transform="translate(-67.522639,-224.89764)">
    <path
       style="fill:#000000;fill-rule:evenodd"
       d="m 329.40625,310.6875 -34.5625,0.625 0,1.3125 0.6875,77.53125 0,1.3125 31.59375,51.15625 c -11.13182,60.10833 -22.26729,131.17432 -22.15625,174.65625 0.022,8.65766 0.73156,17.00028 1.96875,25.03125 -1.11869,1.6907 -1.71875,3.44033 -1.71875,5.25 0,0.29972 -10e-4,0.60652 0.0313,0.90625 0.17703,-1.60936 0.83884,-3.1467 1.90625,-4.65625 5.32052,28.60504 18.38427,54.76142 38.0625,81.78125 11.29199,16.80491 22.10303,28.441 27.09375,33.46875 0.0172,0.0173 0.0454,0.0453 0.0625,0.0625 0.91213,1.06433 1.83104,2.09875 2.63535,2.95576 0.92458,-0.95436 1.85284,-2.08972 2.61465,-2.95576 0.0171,-0.0172 0.0453,-0.0452 0.0625,-0.0625 4.99072,-5.02775 15.80176,-16.66384 27.09375,-33.46875 19.67823,-27.01983 32.74198,-53.17621 38.0625,-81.78125 1.06741,1.50955 1.72922,3.04689 1.90625,4.65625 0.0326,-0.29973 0.0313,-0.60653 0.0313,-0.90625 0,-1.80967 -0.60006,-3.5593 -1.71875,-5.25 1.23719,-8.03097 1.94677,-16.37359 1.96875,-25.03125 C 445.14229,573.79932 434.00682,502.73333 422.875,442.625 l 31.59375,-51.15625 0,-1.3125 0.6875,-77.53125 0,-1.3125 -34.5625,-0.625 -21.5625,23.1875 -2.8125,0 -14.5,0 0,-20.15625 -3.0625,0 -7.3125,0 -3.0625,0 0,20.15625 -14.5,0 -2.8125,0 z"
       id="path3169"
       inkscape:connector-curvature="0"
       sodipodi:nodetypes="ccccccccscccccccccccsccccccccccccccccccc" />
    <path
       style="fill:#d40000"
       d="M 375,251.125 A 281.25002,281.25002 0 0 0 93.75,532.375 281.25002,281.25002 0 0 0 375,813.625 281.25002,281.25002 0 0 0 656.25,532.375 281.25002,281.25002 0 0 0 375,251.125 z m 0,43.90625 A 237.33167,237.33167 0 0 1 612.34375,532.375 237.33167,237.33167 0 0 1 559.8125,680.9375 l -333.5,-333.46875 A 237.33167,237.33167 0 0 1 375,295.03125 z m -184.8125,88.75 333.5,333.46875 A 237.33167,237.33167 0 0 1 375,769.6875 237.33167,237.33167 0 0 1 137.65625,532.375 237.33167,237.33167 0 0 1 190.1875,383.78125 z"
       id="path3623"
       inkscape:connector-curvature="0" />
  </g>
</svg>
